<svg width="100%" height="200" viewBox="0 0 800 200" xmlns="http://www.w3.org/2000/svg">
  <defs>
    <linearGradient id="bgGradient" x1="0%" y1="0%" x2="100%" y2="100%">
      <stop offset="0%" style="stop-color:#ff6b6b;stop-opacity:0.2" />
      <stop offset="25%" style="stop-color:#4ecdc4;stop-opacity:0.2" />
      <stop offset="50%" style="stop-color:#45b7d1;stop-opacity:0.2" />
      <stop offset="75%" style="stop-color:#96ceb4;stop-opacity:0.2" />
      <stop offset="100%" style="stop-color:#feca57;stop-opacity:0.2" />
    </linearGradient>
    <linearGradient id="textGradient" x1="0%" y1="0%" x2="100%" y2="0%">
      <stop offset="0%" style="stop-color:#ff6b6b" />
      <stop offset="20%" style="stop-color:#4ecdc4" />
      <stop offset="40%" style="stop-color:#45b7d1" />
      <stop offset="60%" style="stop-color:#96ceb4" />
      <stop offset="80%" style="stop-color:#feca57" />
      <stop offset="100%" style="stop-color:#ff9ff3" />
    </linearGradient>
    <filter id="glow">
      <feGaussianBlur stdDeviation="3" result="coloredBlur"/>
      <feMerge> 
        <feMergeNode in="coloredBlur"/>
        <feMergeNode in="SourceGraphic"/>
      </feMerge>
    </filter>
  </defs>
  
  <!-- Background -->
  <rect width="100%" height="100%" fill="url(#bgGradient)" rx="15"/>
  
  <!-- Decorative bamboo -->
  <g stroke="#96ceb4" stroke-width="4" fill="none" opacity="0.6">
    <line x1="50" y1="20" x2="50" y2="180"/>
    <line x1="45" y1="60" x2="55" y2="60"/>
    <line x1="45" y1="100" x2="55" y2="100"/>
    <line x1="45" y1="140" x2="55" y2="140"/>
    <line x1="750" y1="20" x2="750" y2="180"/>
    <line x1="745" y1="60" x2="755" y2="60"/>
    <line x1="745" y1="100" x2="755" y2="100"/>
    <line x1="745" y1="140" x2="755" y2="140"/>
  </g>
  
  <!-- Cherry blossom petals -->
  <g fill="#ff9ff3" opacity="0.7">
    <circle cx="120" cy="40" r="8"/>
    <circle cx="130" cy="30" r="6"/>
    <circle cx="110" cy="35" r="5"/>
    <circle cx="680" cy="45" r="7"/>
    <circle cx="690" cy="35" r="5"/>
    <circle cx="670" cy="40" r="6"/>
    <circle cx="150" cy="160" r="6"/>
    <circle cx="140" cy="170" r="5"/>
    <circle cx="650" cy="165" r="7"/>
    <circle cx="660" cy="155" r="5"/>
  </g>
  
  <!-- Sparkles -->
  <g fill="#feca57" opacity="0.8">
    <polygon points="200,50 202,54 206,54 203,57 204,61 200,58 196,61 197,57 194,54 198,54" />
    <polygon points="600,60 601,63 604,63 602,65 603,68 600,66 597,68 598,65 596,63 599,63" />
    <polygon points="180,120 181,122 183,122 182,124 182.5,126 180,125 177.5,126 178,124 177,122 179,122" />
    <polygon points="620,130 621,132 623,132 622,134 622.5,136 620,135 617.5,136 618,134 617,132 619,132" />
    <polygon points="250,170 251,172 253,172 252,174 252.5,176 250,175 247.5,176 248,174 247,172 249,172" />
    <polygon points="550,40 551,42 553,42 552,44 552.5,46 550,45 547.5,46 548,44 547,42 549,42" />
  </g>
  
  <!-- Main title -->
  <text x="400" y="80" font-family="Arial, sans-serif" font-size="48" font-weight="bold" text-anchor="middle" fill="url(#textGradient)" filter="url(#glow)">
    🎋 おみくじアプリ ✨
  </text>
  
  <!-- Subtitle -->
  <text x="400" y="110" font-family="Arial, sans-serif" font-size="18" text-anchor="middle" fill="#4ecdc4" opacity="0.9">
    ～ ギャルAI「キラリ」と一緒に運勢チェック ～
  </text>
  
  <!-- Decorative elements -->
  <g stroke="#ff6b6b" stroke-width="2" fill="none" opacity="0.6">
    <path d="M 200 130 Q 300 140 400 130 Q 500 120 600 130" />
  </g>
  
  <!-- Fortune symbols -->
  <text x="320" y="160" font-family="Arial, sans-serif" font-size="24" text-anchor="middle" fill="#ff6b6b">🔮</text>
  <text x="380" y="160" font-family="Arial, sans-serif" font-size="24" text-anchor="middle" fill="#4ecdc4">⭐</text>
  <text x="420" y="160" font-family="Arial, sans-serif" font-size="24" text-anchor="middle" fill="#45b7d1">🌙</text>
  <text x="480" y="160" font-family="Arial, sans-serif" font-size="24" text-anchor="middle" fill="#96ceb4">🍀</text>
</svg>